<svg width="60" height="65" viewBox="0 0 60 65" fill="none" xmlns="http://www.w3.org/2000/svg">
<path d="M30.1192 64.4464C46.03 64.4464 58.9283 51.5475 58.9283 35.6358C58.9283 19.7242 46.03 6.82524 30.1192 6.82524C14.2083 6.82524 1.31006 19.7242 1.31006 35.6358C1.31006 51.5475 14.2083 64.4464 30.1192 64.4464Z" fill="white"/>
<path d="M44.8523 21.979C44.5109 21.4274 44.1958 20.8496 43.9332 20.2456C43.6968 19.7203 43.014 19.6678 42.5413 19.9304C41.9373 19.8779 41.2545 20.3506 41.4908 21.1123C41.806 22.1365 42.2524 23.1345 42.8039 24.08C43.1978 24.7628 44.0645 24.6315 44.4321 24.1063C44.7735 24.1325 45.0887 23.975 45.325 23.6335C45.4826 23.3972 45.5351 23.1608 45.5614 22.8719C45.5877 22.478 45.2463 22.1103 44.8523 21.979Z" fill="black"/>
<path d="M41.1752 10.7122C40.9388 10.4233 40.4661 10.6072 40.3611 10.9223C40.3085 10.8961 40.2298 10.8961 40.1772 10.8698C39.8358 10.8436 39.652 11.2112 39.7045 11.4739C39.7308 11.5789 39.757 11.7102 39.757 11.8153C39.4944 11.8941 39.3106 12.2092 39.4419 12.5244C39.7045 13.1022 39.8621 13.68 39.9934 14.3103C40.0459 14.5992 40.2823 14.678 40.5186 14.6517C40.5186 14.678 40.5449 14.7042 40.5712 14.7305C40.7025 14.9406 40.9126 14.9931 41.0701 14.9406C41.2014 15.2557 41.7004 15.4133 41.9368 15.0194C42.7246 13.8113 42.0156 11.7365 41.1752 10.7122Z" fill="#819CC1"/>
<path d="M58.7708 37.0805C58.7708 36.9492 58.797 36.8442 58.797 36.7129C58.797 36.6341 58.797 36.5553 58.7708 36.4765C58.8758 36.3189 58.9546 36.1351 58.9546 35.925C58.9283 34.7957 58.8758 33.6926 58.7708 32.5633C58.692 31.6441 58.6657 30.6461 58.2193 29.8319C58.2193 29.7532 58.2193 29.6744 58.2193 29.5956C57.7728 26.3127 56.1971 23.3187 54.4113 20.5873C53.0982 18.5651 51.7326 16.2539 49.7105 14.8883C49.2903 14.3893 48.8438 13.9428 48.3448 13.5226C48.1873 13.3913 48.0297 13.3125 47.8459 13.2862C47.5045 12.9711 47.1631 12.6559 46.8217 12.367C46.7166 12.262 46.5853 12.2094 46.454 12.1832C46.3227 12.0518 46.1651 11.9731 46.0338 11.9468C45.8237 11.7892 45.6136 11.6316 45.3773 11.4741C45.351 11.4478 45.3247 11.4215 45.2722 11.4215C44.7995 11.1064 44.3531 10.7912 43.8541 10.5023C43.9329 10.4498 43.9854 10.371 44.0117 10.2397C44.0379 10.1609 44.0379 10.0821 44.0642 10.0033C44.5369 9.50433 44.9571 8.97907 45.3248 8.40128C46.0076 7.8235 46.6116 7.21945 47.2156 6.56287C47.2419 6.56287 47.2681 6.5366 47.3206 6.5366C47.9509 6.24771 48.5024 5.8275 48.9751 5.3285C49.0539 5.24971 49.0802 5.14466 49.1064 5.06587C49.5266 4.80324 49.9468 4.56687 50.367 4.33051C50.4721 4.27798 50.5508 4.19919 50.5771 4.09414C50.7872 4.04161 50.9185 3.9103 51.1549 3.70019C51.5225 3.38504 51.969 3.14867 52.4154 2.93856C52.8093 2.75472 53.2033 2.59714 53.5972 2.4133C54.0699 2.2032 54.6214 1.78299 55.1466 1.96683C55.3567 2.01936 55.5143 1.96683 55.6193 1.86178C56.1446 2.17693 56.6436 1.33652 56.1183 1.02136C55.5668 0.706203 55.2517 0.522362 54.5951 0.653677C53.8335 0.784992 53.072 0.995098 52.3366 1.25773C51.6801 1.4941 51.0498 1.80925 50.4458 2.15067C49.7367 2.57088 49.0014 2.80725 48.2135 3.06988C48.0822 3.12241 48.0034 3.20119 47.9247 3.27998C47.6095 3.43756 47.2944 3.6214 47.058 3.75272C46.5591 4.01535 46.0863 4.30424 45.6136 4.59314C45.5611 4.56687 45.5348 4.56687 45.4823 4.56687C44.9834 4.56687 44.5369 4.98708 44.143 5.24971C43.5915 5.6174 43.04 6.03761 42.5147 6.43155C42.4885 6.45782 42.4622 6.48408 42.436 6.51034C42.2784 6.61539 42.1208 6.72045 41.9895 6.8255C41.8582 6.77297 41.7269 6.77297 41.5956 6.85176C40.9653 7.27197 40.3613 7.71844 39.7835 8.21744C39.6785 8.29623 39.626 8.40128 39.626 8.50633C39.232 8.37502 38.8118 8.29623 38.3917 8.21744C38.3654 8.21744 38.3391 8.21744 38.3129 8.21744C37.9189 7.90228 37.4988 7.69218 36.9998 7.56086C36.8947 7.5346 36.816 7.5346 36.7372 7.56086C36.6059 7.50834 36.4483 7.50834 36.317 7.58713C36.2907 7.61339 36.2645 7.63965 36.2382 7.63965C36.1857 7.61339 36.1332 7.61339 36.0544 7.61339H36.0281C35.7918 7.45581 35.4241 7.50834 35.319 7.87602C35.2928 7.95481 35.2928 8.00734 35.2665 8.05986C35.214 8.16491 35.1877 8.26997 35.1352 8.40128C35.0827 8.50634 35.1089 8.61139 35.1352 8.71644C35.1352 8.7427 35.1352 8.7427 35.1352 8.76896C35.1089 8.84775 35.1089 8.92654 35.0827 9.00533C35.0827 9.05786 35.0827 9.08412 35.0827 9.11038C35.0039 9.34675 34.9251 9.58312 34.8988 9.81949C34.8988 9.87201 34.8988 9.89828 34.8988 9.9508C34.8463 10.0296 34.7938 10.1084 34.7938 10.2397C34.7938 10.3185 34.7938 10.4235 34.7938 10.5023C34.7675 11.0276 34.6362 11.5266 34.6362 12.0518C34.6362 12.3933 34.6625 12.7347 34.6888 13.0761C34.6625 13.4175 34.6625 13.7327 34.715 14.0741C34.715 14.1004 34.715 14.1529 34.7413 14.1792C34.7938 15.1246 34.9251 16.0964 35.1877 17.0156C35.1877 17.0681 35.1877 17.1469 35.1877 17.1994C35.2928 17.6196 35.4241 18.0136 35.5554 18.4338C35.5554 18.46 35.5554 18.46 35.5554 18.4863C35.6604 19.1429 35.9231 19.7207 36.2119 20.2984C36.2119 20.3247 36.2119 20.351 36.2382 20.4035C36.7372 22.2157 37.8927 23.9753 38.8644 25.5773C38.8906 25.7086 38.9694 25.84 39.0745 25.9187C39.3371 26.1814 39.7835 25.9975 39.8886 25.7086C39.8886 25.7086 39.8886 25.7086 39.9148 25.7086C40.0724 25.7874 40.2562 25.7612 40.3876 25.7086C40.6239 25.84 40.9653 25.7349 41.0966 25.4985C41.3855 25.4723 41.6481 25.1834 41.5431 24.8945C41.5431 24.8682 41.5431 24.8682 41.5168 24.8682C41.6218 24.8157 41.7269 24.7106 41.7794 24.5793C41.937 24.5793 42.0683 24.5268 42.1996 24.448C42.2259 24.4743 42.2784 24.4743 42.3047 24.5005L43.2238 25.6299C43.9066 26.4703 44.5894 27.337 45.7975 27.0743C46.0338 27.0218 46.2439 26.838 46.3752 26.6278C46.4803 26.8642 46.5853 27.1006 46.7166 27.337C47.1893 28.2824 47.7934 29.0966 48.66 29.7006C48.7388 29.7532 48.8176 29.7794 48.8963 29.8057C48.9226 29.8845 48.9226 29.937 48.9489 30.0158C49.0539 30.436 49.4216 30.6461 49.8155 30.6986C49.8943 30.9087 49.9993 31.1188 50.0781 31.3289C49.7892 31.6704 49.7367 32.1431 50.1306 32.537C49.6054 32.6684 49.2377 33.4037 49.5004 33.9552C49.5004 33.9552 49.5004 33.9552 49.4741 33.9815C49.3953 34.0866 49.3428 34.1653 49.2903 34.2704C48.5549 34.428 48.2923 35.5835 49.0277 36.0563C49.7105 36.5028 50.3933 37.0018 51.1286 37.3432C51.1549 37.3432 51.1548 37.3694 51.1811 37.3694C51.2074 37.3957 51.2336 37.422 51.2599 37.4482C51.47 37.6058 51.7063 37.6583 51.969 37.7371L52.2578 37.8422C52.2841 37.8422 52.2841 37.8684 52.3104 37.8684C52.4942 37.9998 52.678 38.0785 52.8881 38.1573C52.9669 38.1836 53.0194 38.1836 53.072 38.1836C53.2821 38.2624 53.4921 38.3674 53.7022 38.4462C53.7548 38.525 53.8598 38.6038 53.9911 38.6301C54.0962 38.6563 54.1749 38.6563 54.28 38.6826C54.3325 38.6826 54.385 38.6826 54.4376 38.6826C54.6477 38.7614 54.884 38.8664 55.0678 38.919C55.4355 39.024 55.8032 39.1028 56.1708 39.1816C56.6961 39.2604 57.2476 39.3129 57.7991 39.3392C57.9041 39.3654 58.0354 39.3654 58.1405 39.3392C58.193 39.3392 58.2455 39.3392 58.3243 39.3392C58.3768 39.3392 58.4031 39.3392 58.4556 39.3129C58.6657 39.2866 58.797 39.1028 58.797 38.8927C58.9283 38.7089 58.9808 38.4462 58.9021 38.1573C58.7708 37.7634 58.7445 37.422 58.7708 37.0805Z" fill="#829FC7"/>
<path d="M25.4188 12.787C25.4188 12.7082 25.4451 12.6556 25.4451 12.5769C25.4451 12.2092 25.4188 11.8678 25.3926 11.5001C25.3926 11.2374 25.34 10.9748 25.2875 10.7384C25.2612 10.4495 25.235 10.1607 25.1825 9.87176C25.2087 9.79297 25.2087 9.68792 25.1562 9.58287C25.1299 9.50408 25.1037 9.42529 25.0774 9.32024C25.0511 9.21519 25.0249 9.11013 24.9986 9.00508C24.9724 8.92629 24.9461 8.87377 24.9198 8.8475C24.8936 8.6374 24.8411 8.42729 24.7885 8.21719C24.7623 8.1384 24.736 8.05961 24.6835 8.00709C24.6835 7.98082 24.6835 7.95456 24.6835 7.9283C24.631 7.50809 24.132 7.37677 23.8694 7.56061C23.8168 7.58687 23.7643 7.6394 23.7118 7.69193C23.528 7.61314 23.3179 7.6394 23.1866 7.77072C23.029 7.77072 22.8714 7.8495 22.7664 7.95456C22.53 7.82324 22.1886 7.90203 22.0573 8.1384C21.821 8.00709 21.4533 8.16466 21.3745 8.42729C21.1644 8.26971 20.823 8.32224 20.6917 8.53235C20.6654 8.50608 20.6392 8.50608 20.6129 8.47982C20.2715 8.1384 19.9039 7.82324 19.5099 7.50809C18.9584 6.95656 18.3019 6.53635 17.6191 6.14241C17.5928 6.03735 17.5403 5.9323 17.4878 5.85351C17.409 5.80099 17.3302 5.7222 17.2514 5.66967C17.1464 5.59088 17.0413 5.53836 16.91 5.53836C16.8312 5.53836 16.7524 5.56462 16.6737 5.59088C15.0717 4.48783 13.3647 3.59489 11.6052 2.78073C10.791 2.28173 9.89814 1.91405 8.97898 1.59889C8.87393 1.57263 8.76888 1.57263 8.66384 1.62516C7.98103 1.31 7.29823 1.04737 6.5629 0.837267C6.43159 0.811004 6.30028 0.837267 6.19524 0.889793C5.82757 0.784741 5.40739 0.758478 5.01346 0.86353C4.9872 0.86353 4.96094 0.889793 4.93467 0.889793C4.80337 0.889793 4.6458 0.889793 4.48823 0.889793C3.88421 0.916056 3.85794 1.88779 4.48823 1.86153C5.27608 1.809 5.98514 2.09789 6.69421 2.38679C6.85178 2.46558 7.00935 2.43931 7.14066 2.38679C7.71842 2.75447 8.29618 3.06963 8.9002 3.41105C9.89814 3.98883 10.8436 4.64541 11.7365 5.35451C13.4697 6.77272 15.0192 8.37477 16.5161 10.0293C16.5949 10.1081 16.6737 10.1607 16.7787 10.1607C16.5949 10.1607 16.411 10.2132 16.2272 10.3182C14.9667 11.2112 13.7324 12.1304 12.5243 13.0759C11.4738 13.89 10.4234 14.7042 9.55674 15.7547C9.42543 15.8072 9.29412 15.886 9.16281 16.0436C7.16692 18.4073 5.43365 20.9548 4.04178 23.7387C3.98925 23.8437 3.96299 23.9225 3.93673 24.0276C3.91047 24.0538 3.88421 24.0801 3.85795 24.1326C3.38524 24.8154 3.28019 25.6296 3.12262 26.4438C3.09636 26.5488 3.0701 26.6539 3.0701 26.7589C2.88626 27.2579 2.67617 27.7569 2.5186 28.2559C2.28224 28.9388 2.12467 29.6216 2.04589 30.3307C1.94084 30.462 1.86205 30.5933 1.83579 30.7509C1.70448 31.6438 1.57318 32.5631 1.52065 33.456C1.4156 34.0338 1.33682 34.6116 1.44187 35.2156C1.44187 35.6358 1.44187 36.056 1.46813 36.4763C1.46813 36.5813 1.46813 36.6864 1.49439 36.7914C1.44187 36.8439 1.38934 36.9227 1.33682 37.0015C1.31056 37.1066 1.25804 37.1854 1.23178 37.2904C1.17925 37.5005 1.17925 37.7106 1.23178 37.9207C1.25804 37.9995 1.25804 38.1046 1.2843 38.1834C1.31056 38.3409 1.38935 38.4722 1.49439 38.5773C1.52065 38.6298 1.57318 38.6824 1.6257 38.7349C1.57318 38.9975 1.6257 39.2864 1.91458 39.3652C2.01962 39.3915 2.12467 39.3915 2.22972 39.3652C2.3085 39.3915 2.38729 39.4177 2.49233 39.3915C2.57112 39.3652 2.62364 39.3652 2.70243 39.3389H2.72869C2.78122 39.3652 2.83374 39.3915 2.91252 39.3652C3.01757 39.3652 3.14888 39.3389 3.25393 39.3127C3.33271 39.2864 3.38523 39.2601 3.43776 39.2601C3.49028 39.2601 3.56907 39.2339 3.62159 39.2076C3.64785 39.2076 3.67411 39.2076 3.70037 39.2076C3.88421 39.2076 4.04178 39.1814 4.19935 39.1288C4.35692 39.1551 4.54075 39.0763 4.69832 39.0238C4.77711 38.9975 4.88215 38.9712 4.96094 38.945C5.01346 38.9187 5.06598 38.8925 5.11851 38.8925C5.27608 38.8662 5.40739 38.8137 5.56496 38.7874C5.67 38.8137 5.77505 38.8137 5.90636 38.7611C6.85178 38.4985 7.71842 38.052 8.58506 37.6056C8.66384 37.5793 8.74262 37.553 8.82141 37.5005L9.05776 37.3429C9.11029 37.3167 9.13655 37.2904 9.16281 37.2379C9.21534 37.2116 9.2416 37.2116 9.29412 37.1854C9.39917 37.1591 9.50422 37.1328 9.63552 37.054C9.74057 37.0015 9.81936 36.949 9.89814 36.8702C10.3709 36.6864 10.8436 36.4237 11.185 36.056C11.2112 36.0298 11.2375 36.0035 11.2638 35.9773C11.4738 35.7409 11.6052 35.4783 11.6052 35.1631C11.6052 34.8742 11.4738 34.5328 11.2638 34.3489C11.185 34.2702 11.0799 34.2176 10.9749 34.1651C10.9749 33.0621 10.2395 31.959 9.45169 31.1448C9.3729 31.0661 9.29412 31.0135 9.21533 30.961C9.29412 30.4883 9.39917 30.0418 9.53047 29.5953C9.89814 28.2296 10.6335 27.0478 11.3951 25.866C11.6314 25.6559 11.8415 25.4458 12.0779 25.2094C12.4193 25.6559 13.0233 25.866 13.5748 25.5246C13.7849 25.3932 13.995 25.2357 14.2051 25.1043C14.5202 25.6821 15.2293 26.0498 15.8333 25.6033C16.3323 25.2357 16.805 24.868 17.2514 24.5003C17.2777 24.5003 17.2777 24.5003 17.3039 24.474C17.409 24.5528 17.514 24.6316 17.6191 24.6841C17.7241 24.8155 17.8554 24.9468 18.013 25.0518C18.2231 25.1831 18.4332 25.2357 18.6433 25.2094C18.6958 25.2619 18.7746 25.3407 18.8271 25.3932C19.0897 25.5771 19.3261 25.6559 19.5362 25.6296C19.6412 25.7609 19.7988 25.8922 19.9564 25.971C20.324 26.1549 20.7705 26.1811 21.1382 25.9185C21.2957 25.8397 21.4008 25.7084 21.5058 25.5246L21.6896 25.2094C21.7684 25.0781 21.7947 24.9468 21.821 24.8155C21.8997 24.7367 21.9785 24.6579 22.0311 24.5528L22.5038 23.5811C22.53 23.5286 22.5563 23.476 22.5825 23.4235C22.6613 23.2922 22.7401 23.1609 22.8189 23.0296C22.8189 23.0033 22.8452 23.0033 22.8452 22.977C22.8714 22.9508 22.8714 22.8982 22.8977 22.872L22.9765 22.6881C23.0027 22.6094 23.029 22.5568 23.0553 22.478C23.0553 22.478 23.0553 22.478 23.0815 22.4518C23.2128 22.2417 23.3441 22.0316 23.4492 21.7952C23.4754 21.7164 23.5017 21.6376 23.528 21.5851C23.5542 21.5588 23.5805 21.5063 23.6068 21.4538C23.7643 21.1124 23.8956 20.7709 24.0269 20.4295C24.0532 20.3507 24.0795 20.2719 24.0795 20.1931C24.1057 20.1406 24.132 20.0618 24.1582 20.0093C24.1582 19.983 24.1845 19.9568 24.1845 19.9568C24.2108 19.878 24.237 19.7992 24.2896 19.7204C24.2896 19.6941 24.2896 19.6942 24.3158 19.6679C24.3158 19.6416 24.3421 19.6154 24.3421 19.5891C24.3683 19.5366 24.3683 19.5103 24.3683 19.4578C24.4471 19.2739 24.5259 19.0901 24.6047 18.9063C24.6572 18.7487 24.6835 18.6174 24.6835 18.486C24.6835 18.4598 24.7097 18.4598 24.7097 18.4335C24.7623 18.3547 24.8148 18.2497 24.8411 18.1184C24.8673 18.0658 24.8673 17.987 24.8673 17.9345C24.8936 17.8032 24.9198 17.6456 24.9724 17.5143C24.9986 17.4355 24.9986 17.3567 25.0249 17.2779V17.2517C25.1037 16.9891 25.1562 16.7002 25.2087 16.4375C25.2087 16.4113 25.2087 16.3587 25.2087 16.3325L25.2612 16.0698C25.2612 16.0436 25.2612 16.0173 25.2875 15.9648C25.2875 15.9385 25.2875 15.9123 25.3138 15.886C25.3138 15.8597 25.3138 15.8597 25.3138 15.8335V15.8072C25.34 15.5971 25.3663 15.387 25.3926 15.1769C25.4188 14.9668 25.4713 14.7304 25.4713 14.5203C25.4713 14.4941 25.4713 14.4678 25.4713 14.4415C25.4713 14.4153 25.4713 14.389 25.4713 14.389C25.4713 14.3365 25.4713 14.284 25.4976 14.2314C25.4976 14.2052 25.4976 14.1789 25.4976 14.1526V14.1264C25.4976 14.1001 25.4976 14.0739 25.4976 14.0476C25.4976 13.9951 25.4976 13.9425 25.4976 13.9163C25.4976 13.7324 25.4976 13.5486 25.4976 13.3385C25.4976 13.286 25.4976 13.2072 25.4713 13.1546C25.4188 12.892 25.4188 12.8395 25.4188 12.787ZM17.5928 9.97682C17.5928 9.97682 17.5666 9.97681 17.5666 10.0031C17.409 10.0819 17.2777 10.1869 17.1201 10.2657C17.0151 10.2394 16.91 10.2132 16.805 10.2132C16.9363 10.2132 17.0938 10.1344 17.1989 10.0293C17.3565 10.0819 17.5403 10.0556 17.6716 9.95055C17.6453 9.92429 17.6191 9.95055 17.5928 9.97682ZM17.6979 9.87176C17.7767 9.79297 17.8292 9.71418 17.8554 9.60913C17.8817 9.63539 17.908 9.68792 17.9342 9.71419C17.8554 9.76671 17.7767 9.81924 17.6979 9.87176Z" fill="#829FC7"/>
<path d="M57.4316 7.90205C57.4316 7.82326 57.4053 7.77074 57.3791 7.71821C57.3528 7.45558 57.3265 7.16669 57.274 6.90405C57.274 6.82527 57.2215 6.77274 57.1952 6.72021C57.169 5.80101 57.0639 4.90806 56.8538 3.98886C56.8538 3.93633 56.8276 3.91007 56.8276 3.8838V3.85754C56.9064 3.77875 56.9589 3.69996 57.0377 3.62117C57.169 3.48986 57.169 3.33228 57.1165 3.20096C57.1165 3.1747 57.1427 3.14844 57.1427 3.12217C57.2478 2.80702 56.9064 2.57065 56.6437 2.62318C56.6175 2.62318 56.565 2.64944 56.5387 2.64944C56.5387 2.4656 56.4074 2.28176 56.2498 2.22923C56.2236 2.20297 56.171 2.1767 56.1448 2.1767C56.0923 2.15044 56.0135 2.15044 55.9347 2.1767C55.1993 2.25549 54.0964 2.22923 53.5711 2.83328C52.9934 3.06965 52.4419 3.38481 51.8641 3.72623C50.9187 4.27775 49.9995 4.8818 49.1066 5.53838C47.2946 6.85153 45.6663 8.37479 44.2482 10.1082C43.9856 10.4233 44.3007 10.8698 44.5896 10.8173C45.6401 11.4738 46.6906 12.1304 47.7148 12.8395C48.844 13.6011 49.7632 14.6254 50.7086 15.5709C51.6278 16.4901 52.5207 17.4355 53.361 18.4073C53.755 18.88 54.2014 19.3527 54.4903 19.9043C54.7792 20.4821 54.8054 21.1649 55.0418 21.769C55.1731 22.1104 55.7508 22.2154 55.8296 21.769C56.1185 20.272 56.3549 18.7487 56.5387 17.2254C56.5387 17.1992 56.5387 17.1467 56.565 17.1204C56.9064 16.0173 57.0902 14.8618 57.169 13.7062C57.169 13.5749 57.1165 13.4698 57.0377 13.4173C57.0902 12.892 57.1165 12.3668 57.1427 11.8415C57.2478 11.789 57.3003 11.7102 57.3266 11.6051C57.5104 10.3445 57.5366 9.13642 57.4316 7.90205Z" fill="#E68F8B"/>
<path d="M15.9377 9.68793C15.8852 9.66166 15.8589 9.6354 15.8064 9.6354C15.7801 9.58287 15.7538 9.55661 15.7276 9.53034C15.7276 9.47782 15.7013 9.45156 15.7013 9.39903C15.3599 8.6374 14.7296 8.13841 14.0468 7.74446C13.4953 7.11415 12.8388 6.56262 12.156 6.06362C12.1297 6.03736 12.1035 6.03736 12.0772 6.03736C12.0509 6.0111 12.0247 5.98483 11.9984 5.93231C11.9459 5.90604 11.9196 5.85352 11.8671 5.82726C11.7095 5.69594 11.552 5.56462 11.3681 5.43331C11.3156 5.40705 11.2631 5.38078 11.2106 5.38078C10.6591 4.85552 10.0025 4.46157 9.34599 4.06763C8.63692 3.64742 7.77028 2.88579 6.90365 2.807C6.08953 2.12416 5.0128 1.809 3.88355 2.25548C3.54215 2.38679 3.54215 2.83326 3.75224 2.99084C3.67346 3.20095 3.64719 3.43732 3.62093 3.59489C3.38458 4.80299 3.30579 6.08988 3.17448 7.29798C3.06944 8.32224 3.25327 9.39903 3.20075 10.4233C3.12196 10.7647 3.06944 11.1324 3.04318 11.4738C3.01691 11.6314 3.0957 11.7364 3.20075 11.8152C3.14822 11.9728 3.12196 12.1304 3.06944 12.288C2.96439 12.6031 3.25327 12.8132 3.48962 12.787C3.4371 12.9445 3.41084 13.1021 3.35832 13.2597C3.30579 13.4435 3.35832 13.5749 3.46336 13.6799C3.46336 14.3628 3.48962 15.0193 3.54215 15.7022C3.59467 16.7264 3.69972 17.7507 3.83103 18.775C3.85729 18.9588 3.9886 19.0376 4.14617 19.0638C4.14617 19.2214 4.25121 19.3265 4.35626 19.379C4.27748 19.6416 4.17243 19.9043 4.09364 20.1669C3.9886 20.4558 4.22495 20.6659 4.46131 20.6659C4.38252 20.8497 4.30374 21.0073 4.22495 21.1912C4.01486 21.6639 4.69766 22.0841 4.93402 21.6114C5.74813 20.0093 6.69355 18.5123 7.77028 17.0941C7.87533 17.0941 8.00664 17.0416 8.08542 16.9103C9.84496 14.5991 12.0509 12.6819 14.5721 11.2637C14.7034 11.1849 14.7559 11.0799 14.7822 10.9748L14.8084 10.9486C14.9397 10.9748 15.0973 10.9486 15.2024 10.8435C15.3862 10.8172 15.5438 10.7122 15.57 10.5283C15.6225 10.5021 15.6751 10.5021 15.7276 10.4496C16.0953 10.4233 16.3053 9.89803 15.9377 9.68793Z" fill="#E68F8B"/>
<path d="M4.61873 21.9003C4.53994 21.9003 4.48742 21.8741 4.40863 21.8478C4.17228 21.7427 4.01471 21.4538 4.14602 21.165C4.19854 21.0336 4.27733 20.8761 4.35611 20.7447C4.2248 20.7185 4.11975 20.6397 4.06723 20.5609C4.01471 20.4821 3.96219 20.3508 4.04097 20.167C4.11976 19.9569 4.19854 19.7205 4.30359 19.4316C4.19854 19.3791 4.11976 19.274 4.09349 19.1427C3.90966 19.0902 3.80462 18.9851 3.77835 18.8013C3.62078 17.777 3.542 16.7528 3.48947 15.7285C3.43695 15.0194 3.41069 14.3628 3.41069 13.7325C3.27938 13.6274 3.25312 13.4436 3.30564 13.2598C3.35817 13.1285 3.38443 12.9971 3.41069 12.8658C3.27938 12.8396 3.14807 12.787 3.06929 12.682C2.9905 12.5769 2.96424 12.4194 3.01676 12.2618C3.04302 12.1305 3.09555 11.9991 3.14807 11.8416C3.04302 11.7628 2.9905 11.6315 2.9905 11.4739C3.01676 11.1062 3.09555 10.7648 3.14807 10.3971C3.17433 9.92436 3.14807 9.3991 3.12181 8.92636C3.09555 8.37484 3.06929 7.82331 3.12181 7.27179C3.14807 7.08795 3.14807 6.93037 3.17433 6.74653C3.27938 5.69601 3.35817 4.59295 3.56826 3.56869C3.56826 3.54243 3.59452 3.48991 3.59452 3.46364C3.62078 3.30607 3.64704 3.14849 3.69957 2.99091C3.59452 2.88586 3.542 2.70202 3.56826 2.54444C3.59452 2.3606 3.72583 2.22928 3.8834 2.17675C4.93387 1.78281 6.0106 1.96665 6.95602 2.72828C7.61256 2.7808 8.26911 3.22728 8.84687 3.62122C9.0307 3.75254 9.21453 3.88385 9.39836 3.98891H9.42462C10.0549 4.38285 10.7114 4.7768 11.2629 5.27579C11.3155 5.27579 11.368 5.30206 11.4205 5.35458C11.6043 5.4859 11.7619 5.59095 11.9195 5.74853L12.0508 5.85358C12.0771 5.87985 12.1033 5.90611 12.1558 5.95864C12.1821 5.95864 12.2084 5.9849 12.2084 5.9849C12.9437 6.51016 13.574 7.06169 14.1255 7.66574C14.9658 8.13847 15.5173 8.68999 15.8062 9.34657C15.8325 9.37283 15.8325 9.42536 15.8325 9.47789C15.8587 9.50415 15.885 9.53041 15.9113 9.55668C15.9638 9.58294 15.99 9.58294 16.0426 9.6092C16.2264 9.71425 16.3052 9.8981 16.2527 10.1082C16.2001 10.3183 16.0426 10.4759 15.8587 10.5021C15.8325 10.5284 15.78 10.5547 15.7274 10.5547C15.6749 10.7385 15.4911 10.8698 15.3335 10.8961C15.2285 11.0011 15.0972 11.0274 14.9396 11.0011C14.9133 11.1325 14.8345 11.2375 14.7032 11.3163C12.1558 12.7608 9.97612 14.6517 8.24285 16.9366C8.16406 17.0417 8.03275 17.1204 7.90144 17.1467C6.82471 18.5386 5.87929 20.0356 5.09144 21.6377C4.90761 21.8215 4.75004 21.9003 4.61873 21.9003ZM3.56826 12.7345L3.542 12.8658C3.48947 13.0234 3.46321 13.1547 3.41069 13.3123C3.35816 13.4436 3.41069 13.5749 3.48947 13.6537L3.51574 13.68V13.7062C3.51574 14.3366 3.542 14.9931 3.59452 15.7022C3.64705 16.7265 3.75209 17.7508 3.8834 18.7488C3.90966 18.9326 4.06723 18.9589 4.14602 18.9851H4.19854V19.0376C4.19854 19.1952 4.30359 19.274 4.38237 19.3003L4.4349 19.3265L4.40863 19.3791C4.30359 19.6942 4.2248 19.9306 4.14602 20.167C4.11975 20.272 4.11976 20.3508 4.17228 20.4296C4.2248 20.5084 4.32985 20.5609 4.46116 20.5872H4.56621L4.48742 20.7447C4.40863 20.9023 4.35611 21.0336 4.27733 21.1912C4.17228 21.4013 4.30359 21.6114 4.46116 21.6902C4.59246 21.7427 4.75004 21.7427 4.85508 21.5589C5.66919 19.9569 6.61462 18.4336 7.69135 17.0416L7.71761 17.0154H7.74387C7.82266 17.0154 7.9277 16.9891 8.03275 16.8578C9.79228 14.5467 11.972 12.6295 14.5457 11.185C14.677 11.1062 14.7032 11.0011 14.7032 10.9486V10.9224L14.7295 10.8961C14.7295 10.8961 14.7295 10.8961 14.7558 10.8698L14.782 10.8436H14.8083C14.9396 10.8698 15.0709 10.8436 15.1497 10.7648L15.1759 10.7385H15.2022C15.3335 10.7123 15.4911 10.6335 15.5173 10.4759V10.4234H15.5699C15.6224 10.4234 15.6749 10.3971 15.7012 10.3708H15.7274H15.7537C15.885 10.3446 16.0163 10.2395 16.0426 10.0819C16.0688 10.0031 16.0688 9.84557 15.885 9.74052C15.8325 9.71425 15.8062 9.68799 15.7537 9.68799H15.7274V9.66173C15.7012 9.63546 15.6749 9.58294 15.6486 9.55668L15.6224 9.53041V9.50415C15.6224 9.47789 15.6224 9.42536 15.5961 9.3991C15.3072 8.74252 14.782 8.24352 13.9679 7.77079L13.9416 7.74453C13.4164 7.14047 12.7861 6.58895 12.0508 6.08995C12.0245 6.06369 12.0245 6.06369 11.9983 6.06369H11.972V6.03743C11.9457 6.01116 11.9195 5.9849 11.8932 5.95864L11.7619 5.85358C11.6043 5.72227 11.4468 5.59095 11.2629 5.45964C11.2367 5.43337 11.1842 5.40711 11.1579 5.40711H11.1316L11.1054 5.38085C10.5801 4.85559 9.92359 4.46164 9.26705 4.09396H9.24079C9.05696 3.9889 8.87313 3.85759 8.68929 3.72627C8.11154 3.33233 7.48125 2.91212 6.82471 2.85959H6.79845L6.77219 2.83333C5.87929 2.09796 4.82882 1.91412 3.83088 2.30807C3.67331 2.36059 3.62078 2.51817 3.59452 2.5707C3.56826 2.70201 3.62078 2.85959 3.69957 2.93838L3.72583 2.96465L3.69957 3.01717C3.64704 3.17475 3.62078 3.35859 3.59452 3.51617C3.59452 3.5687 3.56826 3.59496 3.56826 3.62122C3.35817 4.64548 3.27938 5.74853 3.17433 6.79905C3.14807 6.98289 3.14807 7.16674 3.12181 7.32431C3.06929 7.84958 3.09555 8.4011 3.12181 8.95262C3.14807 9.45162 3.17433 9.95062 3.14807 10.4496C3.06929 10.791 3.01676 11.1587 2.9905 11.5001C2.96424 11.6577 3.04303 11.7365 3.12181 11.7628L3.17433 11.789V11.8416C3.12181 12.0254 3.09555 12.183 3.04303 12.3143C3.01676 12.4193 3.01676 12.5244 3.09555 12.6032C3.17433 12.682 3.27938 12.7345 3.41069 12.7345H3.56826Z" fill="#E68F8B"/>
<path d="M34.899 41.3613C34.8464 41.0461 34.3212 40.9411 34.2162 41.335C34.0061 42.0704 33.7435 42.7795 33.4021 43.4361C33.3758 43.4623 33.3758 43.4623 33.3495 43.4886C33.1394 43.7512 32.9293 44.0401 32.7455 44.3028C32.7718 43.4098 32.7718 42.5169 32.7718 41.6502C32.798 41.5977 32.8243 41.5451 32.8243 41.4926C32.8243 41.2562 32.8243 40.9936 32.8506 40.7572C32.8768 40.6785 32.8506 40.5734 32.798 40.4946C32.8243 40.4683 32.8243 40.4684 32.8506 40.4421C32.9031 40.3896 32.8243 40.2845 32.7455 40.337C32.7193 40.3633 32.693 40.3896 32.6667 40.4158C32.6667 40.4158 32.6667 40.4158 32.6405 40.4158C32.6142 40.4158 32.6142 40.4158 32.5879 40.4158C32.5617 40.3896 32.5092 40.3896 32.4566 40.3896H26.8104C26.7578 40.3896 26.7316 40.3896 26.6791 40.4158C26.6528 40.4158 26.6003 40.4158 26.574 40.4421L26.5477 40.4158C26.4952 40.337 26.3902 40.4421 26.4427 40.5209L26.469 40.5471C26.4164 40.6259 26.4164 40.7047 26.4427 40.7835C26.4164 40.8098 26.4164 40.8623 26.4164 40.9148C26.4952 42.0179 26.6265 43.1209 26.6265 44.224C26.574 44.224 26.5215 44.224 26.469 44.224C26.469 44.1977 26.4427 44.1714 26.4427 44.1452C26.3902 44.0401 26.3114 43.9876 26.2326 43.9351C26.1013 43.6987 25.9437 43.4623 25.8124 43.226C25.6549 42.8058 25.471 42.3856 25.2609 41.9916C25.2609 41.9653 25.2609 41.9391 25.2609 41.9128C25.2084 41.6502 25.1296 41.4401 25.0246 41.2037C25.0246 41.2037 25.0246 41.1775 24.9983 41.1775C24.972 41.0987 24.9195 41.0987 24.867 41.1249C24.7882 41.1249 24.7094 41.1775 24.7094 41.2562C24.6832 41.2562 24.6569 41.23 24.6044 41.23C24.5781 41.23 24.5256 41.23 24.4993 41.2562C24.4468 41.2037 24.3943 41.2037 24.3418 41.23C24.0529 41.4401 23.4489 41.3613 23.3701 41.8078C23.3176 42.0441 23.4489 42.3856 23.5014 42.5957C23.5802 43.0159 23.659 43.4098 23.7377 43.83C23.764 43.9088 23.8165 43.9351 23.8691 43.9351C24.368 45.9311 24.8933 47.9533 25.6549 49.8443C26.075 50.8948 26.8366 51.7615 27.7821 52.313C27.8346 52.3918 27.9134 52.4968 28.0184 52.5494C28.1235 52.6019 28.2022 52.6544 28.3073 52.7069C28.4123 52.7595 28.4911 52.7857 28.5962 52.7857C28.7537 52.8383 28.885 52.8908 29.0426 52.917C29.2264 52.9433 29.384 52.9433 29.5678 52.917C29.9092 53.1009 30.4082 53.0484 30.6708 52.812C30.6971 52.812 30.7496 52.812 30.7759 52.7857C31.4062 52.5756 31.8789 52.2079 32.2465 51.7089C32.4566 51.7089 32.6405 51.6039 32.7718 51.3675C32.9031 51.1574 32.9293 50.9473 32.9293 50.7372C33.5859 49.9493 34.1374 49.1089 34.5576 48.0846C35.3192 46.22 35.6343 44.1452 35.8969 42.1492C36.0545 41.4926 35.2929 41.0987 34.899 41.3613Z" fill="#912819"/>
<path d="M34.7935 47.5069C32.9815 43.0422 26.311 43.1472 24.604 47.0079C24.7091 48.3473 26.81 51.7615 27.4665 52.2343C28.1231 52.707 29.5937 53.2323 30.5392 52.9696C33.1916 52.208 34.6097 48.0584 34.7935 47.5069Z" fill="#DD6E5D"/>
<path d="M47.0581 12.3407C47.5571 11.3427 53.2821 5.64366 54.7265 4.85576C55.3568 4.51434 55.9083 4.25171 55.9871 5.48608C56.3022 10.8437 54.07 18.6439 53.8599 19.353C51.9953 16.1752 47.6621 12.761 47.0581 12.3407Z" fill="#F9AEAA"/>
<path d="M13.3642 12.3407C12.8652 11.3427 7.14016 5.64361 5.69577 4.85572C5.06549 4.5143 4.51399 4.25167 4.43521 5.48604C4.12007 10.8437 6.35231 18.6438 6.5624 19.3529C8.45325 16.1751 12.7602 12.7609 13.3642 12.3407Z" fill="#F9AEAA"/>
<path d="M4.96081 20.955C4.4881 19.5893 4.38305 18.1185 4.17296 16.6741L3.5952 12.3669C3.56894 12.1043 3.14875 12.1043 3.17501 12.3669C3.3851 13.8902 3.56894 15.4134 3.77903 16.963C3.96286 18.3549 4.09417 19.7469 4.54062 21.0863C4.64567 21.3226 5.0396 21.2176 4.96081 20.955Z" fill="#E68F8B"/>
<path d="M3.62058 5.90618C3.35824 5.90618 3.35824 6.32618 3.62058 6.32618C3.88293 6.29993 3.88293 5.90618 3.62058 5.90618Z" fill="#E68F8B"/>
<path d="M3.25367 6.90415C3.17489 7.4297 3.14863 7.95525 3.17489 8.4808C3.17489 8.74357 3.59508 8.74357 3.59508 8.4808C3.59508 7.95525 3.62134 7.4297 3.67386 6.90415C3.70012 6.64138 3.3062 6.64138 3.25367 6.90415Z" fill="#E68F8B"/>
<path d="M16.0696 9.84565C14.4414 7.84966 12.5243 6.09003 10.3708 4.64556C9.4779 4.06777 8.55873 3.51625 7.61331 3.04351C7.27191 2.85967 6.93051 2.67583 6.58911 2.54452C5.95883 2.25562 5.30228 2.01925 4.61948 2.04552C4.51443 2.01925 4.40939 2.01925 4.30434 1.99299C4.14677 1.96673 4.04172 2.04552 4.01546 2.15057C3.93667 2.17683 3.83163 2.20309 3.75284 2.25562C3.35892 2.43946 3.70032 3.04351 4.09424 2.85967C4.25181 2.78088 4.40938 2.72836 4.59322 2.72836C5.24976 2.80715 5.9063 2.93846 6.53659 3.20109C6.74668 3.30614 6.95677 3.4112 7.16686 3.51625C7.48201 3.70009 7.77088 3.91019 8.08603 4.09404C9.16276 4.80314 10.2395 5.5385 11.3162 6.27387C11.395 6.3264 11.5 6.35266 11.5788 6.3264C13.0758 7.50823 14.4151 8.84765 15.6231 10.2921C15.8595 10.6861 16.3322 10.1871 16.0696 9.84565Z" fill="#E68F8B"/>
<path d="M56.1188 22.5307L55.3309 22.2681C58.1147 13.7063 56.9066 4.43543 56.5652 2.93843C56.3026 1.88791 56.0137 1.31012 55.541 1.04749C54.9633 0.732335 54.0441 0.86365 52.3108 1.4677C48.5029 2.83338 42.8041 5.80111 39.6789 8.61125L39.1274 8.00721C42.3576 5.06574 48.0564 2.09801 52.0219 0.679808C53.6764 0.0757576 54.9895 -0.213135 55.9087 0.312127C56.5915 0.67981 57.0117 1.41517 57.3268 2.72833C57.7995 4.59301 58.9288 13.8376 56.1188 22.5307Z" fill="black"/>
<path d="M44.1429 10.4232L43.749 10.1606C45.6924 7.19286 51.969 2.36046 55.1991 1.75641C55.9082 1.62509 56.4597 1.70388 56.8274 1.96651L56.5385 2.36046C56.2759 2.17662 55.8557 2.12409 55.2779 2.22914C52.2053 2.78067 46.0075 7.58681 44.1429 10.4232Z" fill="black"/>
<path d="M4.27777 22.2155C1.52029 13.68 2.6758 4.69805 3.12225 2.78084C3.43739 1.46769 3.88384 0.732325 4.54038 0.364642C5.4858 -0.134356 6.77263 0.154538 8.42712 0.732325C12.3926 2.15053 18.1177 5.11826 21.3216 8.05972L20.7701 8.66377C17.6712 5.82736 11.9462 2.85963 8.13824 1.52022C6.43123 0.916167 5.48581 0.784852 4.90805 1.10001C4.4616 1.33638 4.14646 1.91416 3.88384 2.99095C3.43739 4.88189 2.30814 13.6538 5.01309 21.9791L4.27777 22.2155Z" fill="black"/>
<path d="M16.3582 10.4233C14.4937 7.58686 8.29589 2.78072 5.22327 2.22919C4.64551 2.12414 4.22533 2.17667 3.96271 2.36051L3.67383 1.96656C4.04149 1.70393 4.59299 1.62515 5.30206 1.75646C8.55851 2.36051 14.8088 7.19292 16.7522 10.1606L16.3582 10.4233Z" fill="black"/>
<path d="M30.1194 64.7618C14.0472 64.7618 0.995117 51.6828 0.995117 35.636C0.995117 19.563 14.0735 6.51028 30.1194 6.51028C46.1653 6.51028 59.2436 19.5893 59.2436 35.636C59.2436 51.709 46.1653 64.7618 30.1194 64.7618ZM30.1194 7.1406C14.3886 7.1406 1.59914 19.9307 1.59914 35.636C1.59914 51.3413 14.3886 64.1314 30.0931 64.1314C45.8239 64.1314 58.5871 51.3413 58.5871 35.636C58.5871 19.9307 45.8239 7.1406 30.1194 7.1406Z" fill="black"/>
<path d="M1.91395 39.4177C1.78264 39.4177 1.65133 39.4177 1.52002 39.4177V39.2864C4.30376 39.3915 7.61274 38.2622 11.053 36.0035C14.362 33.8237 17.5659 30.7247 20.0608 27.2579C25.0243 20.377 26.6262 13.1284 24.4728 7.40306L24.6041 7.35053C26.7838 13.1284 25.1818 20.4033 20.1921 27.3367C14.9923 34.5065 7.53395 39.4177 1.91395 39.4177Z" fill="black"/>
<path d="M58.1146 39.4179C52.4684 39.4179 45.0363 34.5067 39.8627 27.3106C34.873 20.3771 33.2448 13.1023 35.4508 7.32439L35.5821 7.37692C33.4024 13.1023 35.0043 20.3509 39.994 27.2318C42.4889 30.6985 45.6928 33.7976 49.0018 35.9774C52.4421 38.236 55.7248 39.3653 58.5348 39.2603V39.3916C58.3772 39.4179 58.2459 39.4179 58.1146 39.4179Z" fill="black"/>
<path d="M16.0435 37.7632C19.8581 37.7632 22.9504 34.6707 22.9504 30.856C22.9504 27.0413 19.8581 23.9488 16.0435 23.9488C12.229 23.9488 9.13672 27.0413 9.13672 30.856C9.13672 34.6707 12.229 37.7632 16.0435 37.7632Z" fill="#F0C401"/>
<path d="M43.8546 37.7632C47.6691 37.7632 50.7614 34.6708 50.7614 30.8561C50.7614 27.0413 47.6691 23.9489 43.8546 23.9489C40.04 23.9489 36.9478 27.0413 36.9478 30.8561C36.9478 34.6708 40.04 37.7632 43.8546 37.7632Z" fill="#F0C401"/>
<path d="M43.8284 37.6058C43.6971 37.6058 43.5658 37.6058 43.4344 37.6058C40.677 37.4482 38.3922 35.6885 37.473 32.9834C37.2367 32.3269 37.6043 31.6178 38.2346 31.3814C38.8912 31.145 39.6002 31.5127 39.8366 32.143C40.4406 33.8764 41.8325 34.9794 43.592 35.0845C45.4566 35.1895 47.1636 34.0602 48.0828 32.1693C48.3716 31.539 49.1332 31.2763 49.7635 31.5915C50.3938 31.8804 50.6564 32.642 50.3413 33.2723C49.0545 35.9512 46.5858 37.6058 43.8284 37.6058Z" fill="white"/>
<path d="M15.9908 37.6844C13.8373 37.6844 11.8677 36.6076 10.5808 34.7167C10.2132 34.1914 10.3445 33.4561 10.896 33.0884C11.4212 32.7207 12.1565 32.852 12.5242 33.4035C13.3908 34.6642 14.6514 35.3733 16.0695 35.347C17.6452 35.3207 19.1947 34.4015 20.1926 32.852C20.534 32.3005 21.2694 32.1429 21.8208 32.5106C22.3723 32.852 22.5299 33.5874 22.1623 34.1389C20.7441 36.345 18.4594 37.6844 16.0958 37.7107C16.0433 37.6844 16.017 37.6844 15.9908 37.6844Z" fill="white"/>
<path d="M47.9514 28.1521C48.5896 28.1521 49.1069 27.6345 49.1069 26.9959C49.1069 26.3574 48.5896 25.8397 47.9514 25.8397C47.3132 25.8397 46.7959 26.3574 46.7959 26.9959C46.7959 27.6345 47.3132 28.1521 47.9514 28.1521Z" fill="white"/>
<path d="M19.8776 29.254C20.5883 29.254 21.1645 28.6779 21.1645 27.9671C21.1645 27.2564 20.5883 26.6802 19.8776 26.6802C19.167 26.6802 18.5908 27.2564 18.5908 27.9671C18.5908 28.6779 19.167 29.254 19.8776 29.254Z" fill="white"/>
<path d="M16.0432 37.9733C12.1302 37.9733 8.92627 34.7692 8.92627 30.856C8.92627 26.9428 12.1302 23.7387 16.0432 23.7387C19.9562 23.7387 23.1601 26.9428 23.1601 30.856C23.1601 34.7692 19.9825 37.9733 16.0432 37.9733ZM16.0432 24.1589C12.3403 24.1589 9.34646 27.1529 9.34646 30.856C9.34646 34.5591 12.3403 37.553 16.0432 37.553C19.7461 37.553 22.7399 34.5591 22.7399 30.856C22.7662 27.1529 19.7461 24.1589 16.0432 24.1589Z" fill="black"/>
<path d="M43.8537 37.9733C39.9407 37.9733 36.7368 34.7692 36.7368 30.856C36.7368 26.9428 39.9407 23.7387 43.8537 23.7387C47.7667 23.7387 50.9707 26.9428 50.9707 30.856C50.9707 34.7692 47.7667 37.9733 43.8537 37.9733ZM43.8537 24.1589C40.1508 24.1589 37.157 27.1529 37.157 30.856C37.157 34.5591 40.1508 37.553 43.8537 37.553C47.5566 37.553 50.5505 34.5591 50.5505 30.856C50.5505 27.1529 47.5566 24.1589 43.8537 24.1589Z" fill="black"/>
<path d="M43.9859 35.1369C46.3936 35.1369 48.3454 33.185 48.3454 30.7773C48.3454 28.3695 46.3936 26.4176 43.9859 26.4176C41.5783 26.4176 39.6265 28.3695 39.6265 30.7773C39.6265 33.185 41.5783 35.1369 43.9859 35.1369Z" fill="black"/>
<path d="M56.5246 42.9103C56.8204 41.1068 55.1691 39.3345 52.8361 38.9518C50.5032 38.569 48.3721 39.7207 48.0763 41.5241C47.7804 43.3276 49.4317 45.0999 51.7647 45.4827C54.0976 45.8655 56.2287 44.7138 56.5246 42.9103Z" fill="#E68E8A"/>
<path d="M52.6778 45.6421C52.389 45.6421 52.0738 45.6158 51.7849 45.5633C50.6294 45.3795 49.6052 44.8542 48.8962 44.0926C48.1871 43.3309 47.8719 42.4117 48.0033 41.4925C48.1608 40.5996 48.7386 39.8117 49.6577 39.3127C50.5769 38.8137 51.7062 38.6561 52.8617 38.84C55.2515 39.2339 56.9322 41.0461 56.6434 42.9107C56.3807 44.539 54.6737 45.6421 52.6778 45.6421ZM51.9425 38.9713C51.1547 38.9713 50.3931 39.1551 49.7365 39.4965C48.8699 39.9693 48.3184 40.6784 48.1871 41.5188C48.0558 42.3592 48.3447 43.2259 49.0275 43.935C49.7103 44.6704 50.6819 45.1694 51.7849 45.3532C54.0434 45.7209 56.1444 44.6178 56.4333 42.8582C56.7221 41.1248 55.0939 39.3915 52.8354 39.0238C52.5465 38.9975 52.2314 38.9713 51.9425 38.9713Z" fill="black"/>
<path d="M8.95967 45.4658C11.2926 45.0831 12.944 43.3108 12.6481 41.5073C12.3522 39.7038 10.2212 38.5521 7.88822 38.9349C5.55528 39.3177 3.90391 41.09 4.19979 42.8934C4.49566 44.6969 6.62673 45.8486 8.95967 45.4658Z" fill="#E68E8A"/>
<path d="M8.05917 45.642C6.06328 45.642 4.35626 44.5389 4.09365 42.9106C3.77851 41.0459 5.48552 39.2338 7.87533 38.8398C9.03085 38.656 10.1601 38.8136 11.0793 39.3126C11.9984 39.8116 12.6024 40.5732 12.7338 41.4924C12.8913 42.3854 12.5762 43.3046 11.8409 44.0925C11.1318 44.8541 10.1076 45.3793 8.95207 45.5632C8.66319 45.6157 8.37431 45.642 8.05917 45.642ZM4.30374 42.8844C4.59262 44.6177 6.6673 45.747 8.95207 45.3793C10.0551 45.1955 11.0267 44.6965 11.7095 43.9611C12.3924 43.2258 12.6812 42.3854 12.5499 41.5449C12.4186 40.7045 11.8671 39.9954 11.0005 39.5227C10.1338 39.05 9.03085 38.8924 7.92786 39.0762C5.64309 39.4176 4.01486 41.151 4.30374 42.8844Z" fill="black"/>
<path d="M11.237 31.2238C12.6289 30.3046 16.0429 27.9409 20.6387 29.9369C21.0064 30.0945 21.1377 30.7248 20.3761 30.6723C17.5136 30.4884 14.651 30.8299 12.4976 33.1147C12.2875 33.3511 11.8148 33.5349 11.841 32.7733C11.841 32.4056 11.8936 32.038 11.9723 31.7753C11.7097 31.6703 11.5259 31.644 11.2108 31.5915C11.0007 31.5652 11.0532 31.3551 11.237 31.2238Z" fill="black"/>
<path d="M29.7257 37.2381C28.7541 36.7917 27.8874 35.6098 27.7299 35.1634C27.6248 34.8745 27.4935 34.3755 28.3601 34.2442C29.1217 34.1391 30.2247 34.1916 30.96 34.2442C31.6691 34.3229 31.8267 34.5856 31.5378 35.3472C31.2227 36.0038 30.5399 36.7917 29.7257 37.2381Z" fill="black"/>
<path d="M29.6472 53.311C25.6029 53.311 24.0272 46.1675 23.1869 42.3068C23.1343 42.0442 23.0818 41.7815 23.0293 41.5452L23.4232 41.4664C23.4757 41.7027 23.5283 41.9654 23.5808 42.228C24.3424 45.6947 25.9181 52.8908 29.621 52.8908C33.9016 52.8908 35.845 43.83 35.845 41.4926H36.2652C36.2652 44.2503 34.2168 53.311 29.6472 53.311Z" fill="black"/>
<path d="M36.0022 41.7029C35.7134 41.624 35.582 41.5715 35.477 41.5452C35.3457 41.4927 35.1619 41.4401 35.2406 41.2562C35.2932 41.0722 35.477 41.1248 35.6346 41.151C35.7396 41.1773 35.8972 41.2299 36.1335 41.3087L36.0022 41.7029Z" fill="black"/>
<path d="M25.0513 40.8884C25.4189 42.2016 25.7866 43.1208 26.5482 44.2501C26.5219 42.6743 26.4431 41.1248 26.4694 40.3369C26.4431 40.0218 25.0513 40.8884 25.0513 40.8884Z" fill="white"/>
<path d="M26.522 44.3552C26.4957 44.3552 26.4432 44.3289 26.4432 44.3026C25.6554 43.0945 25.2877 42.1491 24.9463 40.9147C24.9463 40.8622 24.9463 40.8097 24.9988 40.8097C25.4715 40.5208 26.2594 40.0743 26.4695 40.2056C26.522 40.2319 26.5483 40.2844 26.5483 40.3632C26.5483 40.7834 26.5483 41.44 26.5745 42.2016C26.6008 42.8319 26.627 43.5673 26.627 44.2764C26.627 44.3289 26.6008 44.3552 26.5483 44.3814C26.5483 44.3552 26.5483 44.3552 26.522 44.3552ZM25.1564 40.941C25.4715 42.0178 25.7867 42.8582 26.4169 43.8824C26.4169 43.2784 26.3907 42.7006 26.3644 42.1753C26.3382 41.44 26.3119 40.8097 26.3382 40.3632C26.1806 40.3894 25.6291 40.6521 25.1564 40.941Z" fill="black"/>
<path d="M34.2957 40.8884C33.9281 42.2016 33.5604 43.1208 32.7988 44.2501C32.8251 42.6743 32.9039 41.1248 32.8776 40.3369C32.8776 40.0218 34.2957 40.8884 34.2957 40.8884Z" fill="white"/>
<path d="M32.7979 44.3552H32.7717C32.7191 44.3289 32.6929 44.3026 32.6929 44.2501C32.6929 43.541 32.7191 42.8057 32.7454 42.1753C32.7717 41.4137 32.7979 40.7834 32.7717 40.3632C32.7717 40.3107 32.7979 40.2581 32.8504 40.2056C33.0605 40.0743 33.8746 40.5208 34.3211 40.8097C34.3736 40.8359 34.3736 40.8884 34.3736 40.9147C34.0322 42.1491 33.6646 43.0945 32.8767 44.3026C32.8767 44.3289 32.8504 44.3552 32.7979 44.3552ZM32.9818 40.3632C32.9818 40.7834 32.9817 41.4137 32.9555 42.1491C32.9292 42.6743 32.9292 43.2521 32.903 43.8562C33.5332 42.8319 33.8484 41.9652 34.1635 40.9147C33.6908 40.6521 33.1656 40.3894 32.9818 40.3632Z" fill="black"/>
<path d="M19.3782 42.2542C19.2207 42.2542 19.0894 42.2542 18.9581 42.2542C18.249 42.2279 16.9884 42.0703 16.5945 41.44C16.2268 40.8885 16.3582 40.3107 16.8834 39.8642C16.9622 39.7854 17.0935 39.8117 17.1723 39.8905C17.2511 39.9693 17.2248 40.1006 17.146 40.1794C16.8834 40.3895 16.647 40.7572 16.9359 41.2299C17.146 41.5713 17.9076 41.8077 18.9843 41.8339C21.558 41.9653 26.574 40.941 29.1213 37.7369C29.2789 37.5531 29.4102 36.949 29.4102 36.5813C29.4102 36.4763 29.5153 36.3712 29.6203 36.3712C29.7254 36.3712 29.8304 36.4763 29.8304 36.5813C29.8304 36.9753 29.6991 37.7107 29.4627 37.9995C26.9154 41.1511 22.1095 42.2542 19.3782 42.2542Z" fill="black"/>
<path d="M39.9675 42.2542C37.21 42.2542 32.4304 41.1511 29.9355 37.9995C29.6992 37.7107 29.5679 36.9753 29.5679 36.5813C29.5679 36.4763 29.6729 36.3712 29.778 36.3712C29.883 36.3712 29.9881 36.4763 29.9881 36.5813C29.9881 36.949 30.1194 37.5531 30.2769 37.7369C32.8243 40.941 37.8403 41.939 40.414 41.8339C41.4907 41.7814 42.2523 41.5451 42.4624 41.2299C42.7775 40.7572 42.5149 40.4157 42.2523 40.1794C42.1735 40.1006 42.1472 39.9693 42.226 39.8905C42.3048 39.8117 42.4361 39.7854 42.5149 39.8642C43.0401 40.3107 43.1714 40.8885 42.8038 41.44C42.4098 42.0703 41.1493 42.2016 40.4402 42.2542C40.2564 42.2542 40.1251 42.2542 39.9675 42.2542Z" fill="black"/>
<path d="M32.7979 40.4159H26.4426C26.4163 40.4159 26.3638 40.3896 26.3638 40.3371C26.3638 40.2845 26.39 40.2582 26.4426 40.2582H32.7979C32.8242 40.2582 32.8767 40.2845 32.8767 40.3371C32.8767 40.3896 32.8504 40.4159 32.7979 40.4159Z" fill="black"/>
</svg>
